<?xml version="1.0" encoding="utf-8"?>
<!-- Generator: Adobe Illustrator 15.0.0, SVG Export Plug-In . SVG Version: 6.00 Build 0)  -->
<!DOCTYPE svg PUBLIC "-//W3C//DTD SVG 1.1//EN" "http://www.w3.org/Graphics/SVG/1.1/DTD/svg11.dtd">
<svg version="1.1" id="Layer_1" xmlns="http://www.w3.org/2000/svg" xmlns:xlink="http://www.w3.org/1999/xlink" x="0px" y="0px"
	 width="109.75px" height="31px" viewBox="0 0 109.75 31" enable-background="new 0 0 109.75 31" xml:space="preserve">
<g>
	<path fill="#231F20" d="M25.636,3.833H3.058v23.129h23.126V3.833H25.636z M25.086,25.865H4.152V4.93h20.935V25.865z"/>
	<path fill="#231F20" d="M50.531,3.833H27.953v23.129h23.126V3.833H50.531z M49.983,25.865H29.047V4.93h20.936V25.865z"/>
	<g>
		<path fill="#231F20" d="M81.509,15.165c0,6.975,5.675,12.65,12.65,12.65c6.977,0,12.65-5.676,12.65-12.65
			s-5.674-12.65-12.65-12.65C87.184,2.515,81.509,8.19,81.509,15.165 M82.608,15.165c0-6.372,5.181-11.553,11.551-11.553
			c6.372,0,11.555,5.181,11.555,11.553c0,6.37-5.183,11.553-11.555,11.553C87.789,26.718,82.608,21.535,82.608,15.165"/>
		<path fill="#231F20" d="M54.904,15.165c0,6.975,5.677,12.65,12.651,12.65c6.974,0,12.652-5.676,12.652-12.65
			s-5.679-12.65-12.652-12.65C60.581,2.515,54.904,8.19,54.904,15.165 M56.002,15.165c0-6.372,5.182-11.553,11.554-11.553
			c6.369,0,11.553,5.181,11.553,11.553c0,6.37-5.184,11.553-11.553,11.553C61.184,26.718,56.002,21.535,56.002,15.165"/>
		<polygon fill="#231F20" points="99.751,7.519 99.751,22.813 98.376,22.813 98.376,15.616 89.942,15.616 89.942,22.813 
			88.57,22.813 88.57,7.519 89.942,7.519 89.942,14.321 98.376,14.321 98.376,7.519 		"/>
		<polygon fill="#231F20" points="62.748,13.342 61.631,10.578 61.712,17.127 61.712,22.813 60.376,22.813 60.376,7.519 
			61.574,7.519 66.084,17.615 67.556,21.322 69.023,17.615 73.536,7.519 74.729,7.519 74.729,22.813 73.399,22.813 73.399,17.127 
			73.477,10.459 72.355,13.342 68.2,22.813 66.905,22.813 		"/>
		<path fill="#231F20" d="M18.363,15.399c-0.23-0.132-0.396-0.199-0.585-0.265v-0.142c0.666-0.296,2.03-1.096,2.03-3.35
			c0-1.229-0.497-2.416-1.273-3.041c-0.971-0.799-2.243-0.799-3.235-0.818h-2.397L12.53,7.88h-1.811l-0.404-0.096H9.107v1.359h1.597
			v12.237l-0.273,0.272H9.107v1.359h1.208l0.388-0.095h1.812l0.386,0.095h2.333c1.489-0.021,3.064-0.063,4.142-1.617
			c0.474-0.667,0.754-1.573,0.754-2.63C20.131,17.231,19.464,16.047,18.363,15.399 M17.653,10.351
			c0.237,0.432,0.322,0.906,0.322,1.337c0,0.517-0.129,1.229-0.541,1.77c-0.82,1.034-2.135,1.034-3.342,1.034h-1.576v-5.14
			l0.273-0.274h2.12C15.773,9.119,17.004,9.164,17.653,10.351 M17.154,21.266c-0.604,0.369-1.487,0.388-2.436,0.388h-2.201v-5.735
			h2.567c0.797,0.02,1.877,0.063,2.609,0.969c0.432,0.539,0.604,1.209,0.604,1.879C18.298,20.037,17.737,20.899,17.154,21.266"/>
		<path fill="#231F20" d="M43.249,18.007c-0.065,0.771-0.195,2.445-1.453,3.415c-0.571,0.465-1.322,0.685-2.025,0.685
			c-1.917,0-2.733-1.345-3.128-2.225c-0.639-1.453-0.727-3.281-0.727-4.21c0-0.682,0.045-2.396,0.507-3.918
			c0.351-1.124,0.924-2.203,1.981-2.729c0.441-0.243,0.971-0.333,1.475-0.333c1.499,0,2.557,0.972,3.018,2.27
			c0.178,0.507,0.263,0.989,0.352,1.605h1.608V7.636h-1.453L43.365,8.87h-0.126c-0.528-0.795-1.665-1.566-3.556-1.566
			c-1.5,0-2.71,0.615-3.458,1.321c-1.585,1.476-1.938,3.921-2.073,4.846c-0.088,0.727-0.13,1.453-0.13,2.182
			c0,3.942,1.233,7.839,5.857,7.839c2.205,0,3.261-1.013,3.679-1.473c1.212-1.322,1.343-2.866,1.454-4.012H43.249"/>
	</g>
</g>
</svg>
